<svg width="173" height="48" viewBox="0 0 173 48" fill="none" xmlns="http://www.w3.org/2000/svg">
<g filter="url(#filter0_d_1_1364)">
<mask id="path-1-outside-1_1_1364" maskUnits="userSpaceOnUse" x="3.85742" y="0.428711" width="169" height="43" fill="black">
<rect fill="white" x="3.85742" y="0.428711" width="169" height="43"/>
<path d="M7.85742 40.8492C8.68646 39.2867 9.54363 36.1325 10.4289 31.3865L11.8433 23.9179C12.7789 19.0759 13.1126 15.988 12.8445 14.6543L25.4266 13.3319C28.2226 13.038 30.3709 13.4478 31.8714 14.5611C33.372 15.6744 34.0549 17.4979 33.9202 20.0315C33.8182 21.9487 33.2929 23.7517 32.3441 25.4402C31.4193 27.1035 30.1824 28.4705 28.6336 29.5412L29.7658 34.3929C30.077 35.7674 30.3412 36.7497 30.5585 37.3397C30.7985 37.9273 31.0967 38.2705 31.4532 38.3692L21.3602 39.43C21.747 38.9581 21.7963 37.818 21.5081 36.0098L20.9064 32.0216L18.2809 32.2976L17.8611 34.4525C17.3315 37.1865 17.2362 38.9782 17.5753 39.8278L7.85742 40.8492ZM19.6052 25.247L22.4694 24.946C24.538 24.7286 25.6154 23.8096 25.7016 22.189C25.7635 21.0249 24.9534 20.5313 23.2712 20.7081L20.407 21.0091L19.6052 25.247Z"/>
<path d="M53.1698 36.0867L44.9522 36.9504C45.2432 36.5793 45.3992 35.9841 45.4201 35.1648L45.3938 34.3845L40.1768 34.9329L39.8622 35.749C39.5875 36.6631 39.5225 37.2487 39.667 37.5059L31.4494 38.3696C31.7295 38.2039 31.9935 37.9152 32.2415 37.5033C32.4894 37.0913 32.8297 36.4314 33.2622 35.5234C33.3665 35.2628 33.4564 35.0604 33.5319 34.9163L42.1915 16.8129L50.3409 15.9564L52.3198 32.9416C52.334 33.099 52.3572 33.3009 52.3893 33.5472C52.4214 33.7934 52.4452 33.9839 52.4607 34.1184C52.4773 34.2302 52.4916 34.3876 52.5034 34.5906C52.5391 34.7684 52.566 34.9018 52.5838 34.9907C52.6017 35.0796 52.6184 35.1913 52.6338 35.3259C52.672 35.4581 52.7006 35.5572 52.7197 35.6233C52.7616 35.687 52.8034 35.7507 52.8452 35.8144C52.887 35.8781 52.9289 35.9418 52.9707 36.0055C53.0364 36.0439 53.1028 36.071 53.1698 36.0867ZM42.2103 29.8506L45.245 29.5316L45.0898 23.5218L44.7147 23.5612L42.2103 29.8506Z"/>
<path d="M54.5913 35.9373C55.1939 34.8071 55.8699 32.2961 56.6194 28.4042L57.749 22.4636C58.4997 18.5489 58.766 16.0923 58.5478 15.0938L73.8577 13.4847L72.5821 20.2577C71.922 19.9185 70.5463 19.8589 68.4549 20.0787L64.7042 20.4729L64.2303 23.0081L65.9693 22.8253C68.3561 22.5744 69.7943 22.3098 70.2838 22.0313L69.1651 27.7665C68.7896 27.6017 67.4084 27.6447 65.0215 27.8956L63.2825 28.0784L62.7636 30.8226C62.3528 33.022 62.277 34.4485 62.5361 35.1022L54.5913 35.9373Z"/>
<path d="M73.092 33.9928C73.6946 32.8626 74.3707 30.3516 75.1201 26.4597L76.2498 20.5191C77.0005 16.6043 77.2667 14.1477 77.0486 13.1493L92.3585 11.5402L91.0829 18.3132C90.4228 17.974 89.047 17.9144 86.9557 18.1342L83.2049 18.5284L82.7311 21.0635L84.47 20.8808C86.8569 20.6299 88.2951 20.3653 88.7846 20.0868L87.6658 25.822C87.2903 25.6572 85.9091 25.7002 83.5223 25.9511L81.7833 26.1339L81.2644 28.878C80.8536 31.0775 80.7777 32.504 81.0368 33.1577L73.092 33.9928Z"/>
<path d="M102.473 24.47C104.564 24.2502 106.007 23.9056 106.8 23.4364L105.437 30.5932L91.5928 32.0482C92.193 30.9638 92.8684 28.4642 93.6191 24.5494L94.7506 18.5746C95.5012 14.6598 95.7675 12.2032 95.5493 11.2048L103.324 10.3877C102.697 11.543 102.022 14.0426 101.297 17.8865L99.984 24.7316L102.473 24.47Z"/>
<path d="M127.725 7.82294L126.493 14.4212C125.833 14.082 124.457 14.0224 122.366 14.2422L118.172 14.683L117.754 16.8037L120.72 16.4919C123.085 16.2434 124.511 15.98 125.001 15.7016L123.97 21.053C123.551 20.8701 122.17 20.9017 119.829 21.1478L116.862 21.4596L116.478 23.5768L120.672 23.136C122.764 22.9161 124.218 22.559 125.036 22.0645L123.769 28.6664L108.016 30.3221C108.618 29.192 109.294 26.681 110.044 22.7891L111.174 16.8485C111.924 12.9337 112.19 10.4771 111.972 9.47867L127.725 7.82294Z"/>
<path d="M137.945 27.1765C138.57 26.044 139.257 23.5432 140.005 19.6741L141.136 13.6992C141.885 9.83013 142.14 7.37473 141.901 6.33302L149.88 5.4944C149.227 6.72059 148.54 9.22139 147.82 12.9968L146.688 18.9716C145.966 22.7699 145.711 25.2253 145.924 26.3379L137.945 27.1765Z"/>
<path d="M153.268 25.5659C153.893 24.4334 154.58 21.9326 155.328 18.0635L156.698 10.804L155.947 10.8828C153.879 11.1003 152.436 11.4562 151.618 11.9507L152.894 5.17762L169.534 3.42871L168.258 10.2018C167.598 9.86259 166.222 9.8029 164.131 10.0227L163.381 10.1016L162.011 17.3611C161.29 21.1593 161.035 23.6147 161.247 24.7273L153.268 25.5659Z"/>
</mask>
<path d="M7.85742 40.8492C8.68646 39.2867 9.54363 36.1325 10.4289 31.3865L11.8433 23.9179C12.7789 19.0759 13.1126 15.988 12.8445 14.6543L25.4266 13.3319C28.2226 13.038 30.3709 13.4478 31.8714 14.5611C33.372 15.6744 34.0549 17.4979 33.9202 20.0315C33.8182 21.9487 33.2929 23.7517 32.3441 25.4402C31.4193 27.1035 30.1824 28.4705 28.6336 29.5412L29.7658 34.3929C30.077 35.7674 30.3412 36.7497 30.5585 37.3397C30.7985 37.9273 31.0967 38.2705 31.4532 38.3692L21.3602 39.43C21.747 38.9581 21.7963 37.818 21.5081 36.0098L20.9064 32.0216L18.2809 32.2976L17.8611 34.4525C17.3315 37.1865 17.2362 38.9782 17.5753 39.8278L7.85742 40.8492ZM19.6052 25.247L22.4694 24.946C24.538 24.7286 25.6154 23.8096 25.7016 22.189C25.7635 21.0249 24.9534 20.5313 23.2712 20.7081L20.407 21.0091L19.6052 25.247Z" fill="#F0BF22"/>
<path d="M53.1698 36.0867L44.9522 36.9504C45.2432 36.5793 45.3992 35.9841 45.4201 35.1648L45.3938 34.3845L40.1768 34.9329L39.8622 35.749C39.5875 36.6631 39.5225 37.2487 39.667 37.5059L31.4494 38.3696C31.7295 38.2039 31.9935 37.9152 32.2415 37.5033C32.4894 37.0913 32.8297 36.4314 33.2622 35.5234C33.3665 35.2628 33.4564 35.0604 33.5319 34.9163L42.1915 16.8129L50.3409 15.9564L52.3198 32.9416C52.334 33.099 52.3572 33.3009 52.3893 33.5472C52.4214 33.7934 52.4452 33.9839 52.4607 34.1184C52.4773 34.2302 52.4916 34.3876 52.5034 34.5906C52.5391 34.7684 52.566 34.9018 52.5838 34.9907C52.6017 35.0796 52.6184 35.1913 52.6338 35.3259C52.672 35.4581 52.7006 35.5572 52.7197 35.6233C52.7616 35.687 52.8034 35.7507 52.8452 35.8144C52.887 35.8781 52.9289 35.9418 52.9707 36.0055C53.0364 36.0439 53.1028 36.071 53.1698 36.0867ZM42.2103 29.8506L45.245 29.5316L45.0898 23.5218L44.7147 23.5612L42.2103 29.8506Z" fill="#F0BF22"/>
<path d="M54.5913 35.9373C55.1939 34.8071 55.8699 32.2961 56.6194 28.4042L57.749 22.4636C58.4997 18.5489 58.766 16.0923 58.5478 15.0938L73.8577 13.4847L72.5821 20.2577C71.922 19.9185 70.5463 19.8589 68.4549 20.0787L64.7042 20.4729L64.2303 23.0081L65.9693 22.8253C68.3561 22.5744 69.7943 22.3098 70.2838 22.0313L69.1651 27.7665C68.7896 27.6017 67.4084 27.6447 65.0215 27.8956L63.2825 28.0784L62.7636 30.8226C62.3528 33.022 62.277 34.4485 62.5361 35.1022L54.5913 35.9373Z" fill="#F0BF22"/>
<path d="M73.092 33.9928C73.6946 32.8626 74.3707 30.3516 75.1201 26.4597L76.2498 20.5191C77.0005 16.6043 77.2667 14.1477 77.0486 13.1493L92.3585 11.5402L91.0829 18.3132C90.4228 17.974 89.047 17.9144 86.9557 18.1342L83.2049 18.5284L82.7311 21.0635L84.47 20.8808C86.8569 20.6299 88.2951 20.3653 88.7846 20.0868L87.6658 25.822C87.2903 25.6572 85.9091 25.7002 83.5223 25.9511L81.7833 26.1339L81.2644 28.878C80.8536 31.0775 80.7777 32.504 81.0368 33.1577L73.092 33.9928Z" fill="#F0BF22"/>
<path d="M102.473 24.47C104.564 24.2502 106.007 23.9056 106.8 23.4364L105.437 30.5932L91.5928 32.0482C92.193 30.9638 92.8684 28.4642 93.6191 24.5494L94.7506 18.5746C95.5012 14.6598 95.7675 12.2032 95.5493 11.2048L103.324 10.3877C102.697 11.543 102.022 14.0426 101.297 17.8865L99.984 24.7316L102.473 24.47Z" fill="#F0BF22"/>
<path d="M127.725 7.82294L126.493 14.4212C125.833 14.082 124.457 14.0224 122.366 14.2422L118.172 14.683L117.754 16.8037L120.72 16.4919C123.085 16.2434 124.511 15.98 125.001 15.7016L123.97 21.053C123.551 20.8701 122.17 20.9017 119.829 21.1478L116.862 21.4596L116.478 23.5768L120.672 23.136C122.764 22.9161 124.218 22.559 125.036 22.0645L123.769 28.6664L108.016 30.3221C108.618 29.192 109.294 26.681 110.044 22.7891L111.174 16.8485C111.924 12.9337 112.19 10.4771 111.972 9.47867L127.725 7.82294Z" fill="#F0BF22"/>
<path d="M137.945 27.1765C138.57 26.044 139.257 23.5432 140.005 19.6741L141.136 13.6992C141.885 9.83013 142.14 7.37473 141.901 6.33302L149.88 5.4944C149.227 6.72059 148.54 9.22139 147.82 12.9968L146.688 18.9716C145.966 22.7699 145.711 25.2253 145.924 26.3379L137.945 27.1765Z" fill="#F0BF22"/>
<path d="M153.268 25.5659C153.893 24.4334 154.58 21.9326 155.328 18.0635L156.698 10.804L155.947 10.8828C153.879 11.1003 152.436 11.4562 151.618 11.9507L152.894 5.17762L169.534 3.42871L168.258 10.2018C167.598 9.86259 166.222 9.8029 164.131 10.0227L163.381 10.1016L162.011 17.3611C161.29 21.1593 161.035 23.6147 161.247 24.7273L153.268 25.5659Z" fill="#F0BF22"/>
<path d="M7.85742 40.8492C8.68646 39.2867 9.54363 36.1325 10.4289 31.3865L11.8433 23.9179C12.7789 19.0759 13.1126 15.988 12.8445 14.6543L25.4266 13.3319C28.2226 13.038 30.3709 13.4478 31.8714 14.5611C33.372 15.6744 34.0549 17.4979 33.9202 20.0315C33.8182 21.9487 33.2929 23.7517 32.3441 25.4402C31.4193 27.1035 30.1824 28.4705 28.6336 29.5412L29.7658 34.3929C30.077 35.7674 30.3412 36.7497 30.5585 37.3397C30.7985 37.9273 31.0967 38.2705 31.4532 38.3692L21.3602 39.43C21.747 38.9581 21.7963 37.818 21.5081 36.0098L20.9064 32.0216L18.2809 32.2976L17.8611 34.4525C17.3315 37.1865 17.2362 38.9782 17.5753 39.8278L7.85742 40.8492ZM19.6052 25.247L22.4694 24.946C24.538 24.7286 25.6154 23.8096 25.7016 22.189C25.7635 21.0249 24.9534 20.5313 23.2712 20.7081L20.407 21.0091L19.6052 25.247Z" stroke="#0B2A26" stroke-width="4" mask="url(#path-1-outside-1_1_1364)"/>
<path d="M53.1698 36.0867L44.9522 36.9504C45.2432 36.5793 45.3992 35.9841 45.4201 35.1648L45.3938 34.3845L40.1768 34.9329L39.8622 35.749C39.5875 36.6631 39.5225 37.2487 39.667 37.5059L31.4494 38.3696C31.7295 38.2039 31.9935 37.9152 32.2415 37.5033C32.4894 37.0913 32.8297 36.4314 33.2622 35.5234C33.3665 35.2628 33.4564 35.0604 33.5319 34.9163L42.1915 16.8129L50.3409 15.9564L52.3198 32.9416C52.334 33.099 52.3572 33.3009 52.3893 33.5472C52.4214 33.7934 52.4452 33.9839 52.4607 34.1184C52.4773 34.2302 52.4916 34.3876 52.5034 34.5906C52.5391 34.7684 52.566 34.9018 52.5838 34.9907C52.6017 35.0796 52.6184 35.1913 52.6338 35.3259C52.672 35.4581 52.7006 35.5572 52.7197 35.6233C52.7616 35.687 52.8034 35.7507 52.8452 35.8144C52.887 35.8781 52.9289 35.9418 52.9707 36.0055C53.0364 36.0439 53.1028 36.071 53.1698 36.0867ZM42.2103 29.8506L45.245 29.5316L45.0898 23.5218L44.7147 23.5612L42.2103 29.8506Z" stroke="#0B2A26" stroke-width="4" mask="url(#path-1-outside-1_1_1364)"/>
<path d="M54.5913 35.9373C55.1939 34.8071 55.8699 32.2961 56.6194 28.4042L57.749 22.4636C58.4997 18.5489 58.766 16.0923 58.5478 15.0938L73.8577 13.4847L72.5821 20.2577C71.922 19.9185 70.5463 19.8589 68.4549 20.0787L64.7042 20.4729L64.2303 23.0081L65.9693 22.8253C68.3561 22.5744 69.7943 22.3098 70.2838 22.0313L69.1651 27.7665C68.7896 27.6017 67.4084 27.6447 65.0215 27.8956L63.2825 28.0784L62.7636 30.8226C62.3528 33.022 62.277 34.4485 62.5361 35.1022L54.5913 35.9373Z" stroke="#0B2A26" stroke-width="4" mask="url(#path-1-outside-1_1_1364)"/>
<path d="M73.092 33.9928C73.6946 32.8626 74.3707 30.3516 75.1201 26.4597L76.2498 20.5191C77.0005 16.6043 77.2667 14.1477 77.0486 13.1493L92.3585 11.5402L91.0829 18.3132C90.4228 17.974 89.047 17.9144 86.9557 18.1342L83.2049 18.5284L82.7311 21.0635L84.47 20.8808C86.8569 20.6299 88.2951 20.3653 88.7846 20.0868L87.6658 25.822C87.2903 25.6572 85.9091 25.7002 83.5223 25.9511L81.7833 26.1339L81.2644 28.878C80.8536 31.0775 80.7777 32.504 81.0368 33.1577L73.092 33.9928Z" stroke="#0B2A26" stroke-width="4" mask="url(#path-1-outside-1_1_1364)"/>
<path d="M102.473 24.47C104.564 24.2502 106.007 23.9056 106.8 23.4364L105.437 30.5932L91.5928 32.0482C92.193 30.9638 92.8684 28.4642 93.6191 24.5494L94.7506 18.5746C95.5012 14.6598 95.7675 12.2032 95.5493 11.2048L103.324 10.3877C102.697 11.543 102.022 14.0426 101.297 17.8865L99.984 24.7316L102.473 24.47Z" stroke="#0B2A26" stroke-width="4" mask="url(#path-1-outside-1_1_1364)"/>
<path d="M127.725 7.82294L126.493 14.4212C125.833 14.082 124.457 14.0224 122.366 14.2422L118.172 14.683L117.754 16.8037L120.72 16.4919C123.085 16.2434 124.511 15.98 125.001 15.7016L123.97 21.053C123.551 20.8701 122.17 20.9017 119.829 21.1478L116.862 21.4596L116.478 23.5768L120.672 23.136C122.764 22.9161 124.218 22.559 125.036 22.0645L123.769 28.6664L108.016 30.3221C108.618 29.192 109.294 26.681 110.044 22.7891L111.174 16.8485C111.924 12.9337 112.19 10.4771 111.972 9.47867L127.725 7.82294Z" stroke="#0B2A26" stroke-width="4" mask="url(#path-1-outside-1_1_1364)"/>
<path d="M137.945 27.1765C138.57 26.044 139.257 23.5432 140.005 19.6741L141.136 13.6992C141.885 9.83013 142.14 7.37473 141.901 6.33302L149.88 5.4944C149.227 6.72059 148.54 9.22139 147.82 12.9968L146.688 18.9716C145.966 22.7699 145.711 25.2253 145.924 26.3379L137.945 27.1765Z" stroke="#0B2A26" stroke-width="4" mask="url(#path-1-outside-1_1_1364)"/>
<path d="M153.268 25.5659C153.893 24.4334 154.58 21.9326 155.328 18.0635L156.698 10.804L155.947 10.8828C153.879 11.1003 152.436 11.4562 151.618 11.9507L152.894 5.17762L169.534 3.42871L168.258 10.2018C167.598 9.86259 166.222 9.8029 164.131 10.0227L163.381 10.1016L162.011 17.3611C161.29 21.1593 161.035 23.6147 161.247 24.7273L153.268 25.5659Z" stroke="#0B2A26" stroke-width="4" mask="url(#path-1-outside-1_1_1364)"/>
</g>
<defs>
<filter id="filter0_d_1_1364" x="0.329529" y="1.15894" width="171.667" height="44.072" filterUnits="userSpaceOnUse" color-interpolation-filters="sRGB">
<feFlood flood-opacity="0" result="BackgroundImageFix"/>
<feColorMatrix in="SourceAlpha" type="matrix" values="0 0 0 0 0 0 0 0 0 0 0 0 0 0 0 0 0 0 127 0" result="hardAlpha"/>
<feOffset dx="-4" dy="2"/>
<feComposite in2="hardAlpha" operator="out"/>
<feColorMatrix type="matrix" values="0 0 0 0 0.250937 0 0 0 0 0.608333 0 0 0 0 0.565659 0 0 0 1 0"/>
<feBlend mode="normal" in2="BackgroundImageFix" result="effect1_dropShadow_1_1364"/>
<feBlend mode="normal" in="SourceGraphic" in2="effect1_dropShadow_1_1364" result="shape"/>
</filter>
</defs>
</svg>
